<svg width="48" height="48" viewBox="0 0 48 48" fill="none" xmlns="http://www.w3.org/2000/svg">
<g id="Frame" clip-path="url(#clip0_1_154)">
<path id="Vector" d="M10.0001 26.3601V31.9801C10.0001 33.4401 10.8001 34.8001 12.0801 35.5001L22.0801 40.9601C23.2801 41.6201 24.7201 41.6201 25.9201 40.9601L35.9201 35.5001C37.2001 34.8001 38.0001 33.4401 38.0001 31.9801V26.3601L25.9201 32.9601C24.7201 33.6201 23.2801 33.6201 22.0801 32.9601L10.0001 26.3601ZM22.0801 7.04006L5.22006 16.2401C3.84006 17.0001 3.84006 19.0001 5.22006 19.7601L22.0801 28.9601C23.2801 29.6201 24.7201 29.6201 25.9201 28.9601L42.0001 20.1801V32.0001C42.0001 33.1001 42.9001 34.0001 44.0001 34.0001C45.1001 34.0001 46.0001 33.1001 46.0001 32.0001V19.1801C46.0001 18.4401 45.6001 17.7801 44.9601 17.4201L25.9201 7.04006C24.7201 6.40006 23.2801 6.40006 22.0801 7.04006Z" fill="#004AE2"/>
</g>
<defs>
<clipPath id="clip0_1_154">
<rect width="48" height="48" fill="white"/>
</clipPath>
</defs>
</svg>
